<svg width="128" height="128" viewBox="0 0 128 128" fill="none" xmlns="http://www.w3.org/2000/svg">
<rect width="128" height="128" rx="8" fill="white"/>
<path d="M117.333 53.3333C117.333 68.0608 105.394 80 90.6667 80C75.9392 80 64 68.0608 64 53.3333C64 38.6058 75.9392 26.6666 90.6667 26.6666C105.394 26.6666 117.333 38.6058 117.333 53.3333Z" fill="#FCD34D"/>
<path d="M60.072 74.6667H41.0363L35.5547 32H60.0715C55.8374 38.0539 53.3323 45.4016 53.3323 53.3333C53.3323 61.2651 55.8374 68.6128 60.0715 74.6667H60.072ZM53.3328 96C47.4416 96 42.6662 100.775 42.6662 106.667C42.6662 112.558 47.4416 117.333 53.3328 117.333C59.224 117.333 63.9995 112.558 63.9995 106.667C63.9995 100.775 59.224 96 53.3328 96ZM95.9995 96C90.1083 96 85.3328 100.775 85.3328 106.667C85.3328 112.558 90.1083 117.333 95.9995 117.333C101.891 117.333 106.666 112.558 106.666 106.667C106.666 100.775 101.891 96 95.9995 96Z" fill="#CBD5E1"/>
<path d="M109.333 106.667C109.333 114.018 103.351 120 96 120C88.6485 120 82.6667 114.018 82.6667 106.667C82.6667 103.654 83.7093 100.902 85.4016 98.6667H63.9323C65.6245 100.902 66.6672 103.654 66.6672 106.667C66.6672 114.018 60.6853 120 53.3339 120C45.9824 120 40.0005 114.018 40.0005 106.667C40.0005 102.561 41.9056 98.9285 44.8336 96.4805C41.6405 94.3984 39.3552 91.0021 38.8544 86.9867L30.5211 20.3413C30.0208 16.3467 26.6096 13.3333 22.5835 13.3333H10.6667C9.19253 13.3333 8 12.1408 8 10.6667C8 9.19253 9.19253 8 10.6667 8H22.5835C29.2944 8 34.9819 13.0208 35.8128 19.6795L37.0197 29.3333H62.1115C60.7157 30.9915 59.4795 32.7819 58.3851 34.6667H37.6869L42.3547 72H58.3845C59.4789 73.8848 60.7157 75.6752 62.1109 77.3333H43.0213L44.1456 86.3253C44.6459 90.32 48.0571 93.3333 52.0832 93.3333H96C103.351 93.3333 109.333 99.3152 109.333 106.667ZM61.3333 106.667C61.3333 102.255 57.7445 98.6667 53.3333 98.6667C48.9221 98.6667 45.3333 102.255 45.3333 106.667C45.3333 111.078 48.9221 114.667 53.3333 114.667C57.7445 114.667 61.3333 111.078 61.3333 106.667ZM104 106.667C104 102.255 100.411 98.6667 96 98.6667C91.5888 98.6667 88 102.255 88 106.667C88 111.078 91.5888 114.667 96 114.667C100.411 114.667 104 111.078 104 106.667ZM120 53.3333C120 69.5077 106.841 82.6667 90.6667 82.6667C74.4923 82.6667 61.3333 69.5077 61.3333 53.3333C61.3333 37.1589 74.4923 24 90.6667 24C106.841 24 120 37.1589 120 53.3333ZM114.667 53.3333C114.667 40.0992 103.901 29.3333 90.6667 29.3333C77.4325 29.3333 66.6667 40.0992 66.6667 53.3333C66.6667 66.5675 77.4325 77.3333 90.6667 77.3333C103.901 77.3333 114.667 66.5675 114.667 53.3333Z" fill="#0F172A"/>
<path d="M91.7597 58.5817H86.4317L86.2877 51.0457C91.6957 51.0457 94.3997 49.3497 94.3997 45.9577C94.3997 44.6137 93.9837 43.5417 93.1517 42.7417C92.3197 41.9417 91.0877 41.5417 89.4557 41.5417C87.2157 41.5417 84.9917 42.2617 82.7837 43.7017V38.1817C84.7997 37.1257 87.2797 36.5977 90.2237 36.5977C93.2317 36.5977 95.6637 37.3817 97.5197 38.9497C99.3757 40.5177 100.304 42.6617 100.304 45.3817C100.304 46.8217 100.016 48.1177 99.4397 49.2697C98.8637 50.4217 98.1277 51.3337 97.2317 52.0057C96.3677 52.6777 95.4717 53.1897 94.5437 53.5417C93.6157 53.8937 92.7197 54.1017 91.8557 54.1657L91.7597 58.5817ZM92.8157 65.9257C92.8157 67.0137 92.4477 67.9257 91.7117 68.6617C90.9757 69.3657 90.0797 69.7177 89.0237 69.7177C87.9357 69.7177 87.0237 69.3657 86.2877 68.6617C85.5837 67.9257 85.2317 67.0137 85.2317 65.9257C85.2317 64.8697 85.5837 63.9737 86.2877 63.2377C87.0237 62.5017 87.9357 62.1337 89.0237 62.1337C90.0797 62.1337 90.9757 62.5017 91.7117 63.2377C92.4477 63.9737 92.8157 64.8697 92.8157 65.9257Z" fill="black"/>
</svg>
